Coordinates
version=1
nRows=21
nColumns=12
inDegrees=yes

Units are S.I. units (second, meters, Newtons, ...)
Angles are in degrees

endheader
time	SC_y	SC_z	SC_x	AC_y	AC_z	AC_x	GH_y	GH_z	GH_yy	EL_x	PS_y
       0.0               -24.6          32.85           43.1          58.86          3.352          3.446          136.3          25.97         -117.4          67.59          115.4
   0.04137              -24.61          32.84           43.1          58.86          3.353          3.444          136.3          25.97         -117.4          67.59          115.4
   0.08273              -24.61          32.84           43.1          58.85          3.353          3.442          136.2          25.96         -117.4           67.6          115.4
    0.1241              -24.61          32.83           43.1          58.85          3.354           3.44          136.2          25.95         -117.4          67.61          115.4
    0.1655              -24.61          32.83           43.1          58.85          3.356          3.438          136.1          25.94         -117.3          67.61          115.4
    0.2068              -24.62          32.82           43.1          58.84          3.357          3.435          136.1          25.94         -117.3          67.62          115.4
    0.2482              -24.62          32.81           43.1          58.84          3.358          3.433          136.0          25.93         -117.3          67.63          115.3
    0.2896              -24.63          32.81           43.1          58.83          3.359           3.43          135.9          25.92         -117.3          67.64          115.3
    0.3309              -24.63           32.8           43.1          58.83          3.361          3.427          135.9          25.91         -117.3          67.65          115.3
    0.3723              -24.63          32.79           43.1          58.82          3.362          3.424          135.8           25.9         -117.3          67.66          115.3
    0.4137              -24.64          32.78           43.1          58.82          3.364          3.421          135.7          25.88         -117.3          67.67          115.3
     0.455              -24.64          32.77           43.1          58.81          3.366          3.418          135.7          25.87         -117.2          67.68          115.2
    0.4964              -24.65          32.76           43.1           58.8          3.367          3.414          135.6          25.86         -117.2           67.7          115.2
    0.5378              -24.66          32.75          43.11           58.8           3.37           3.41          135.5          25.84         -117.2          67.71          115.2
    0.5791              -24.66          32.73          43.11          58.79          3.372          3.405          135.4          25.83         -117.2          67.73          115.1
    0.6205              -24.67          32.72          43.11          58.78          3.374            3.4          135.3          25.81         -117.1          67.74          115.1
    0.6619              -24.68          32.71          43.11          58.77          3.377          3.395          135.1          25.79         -117.1          67.76          115.1
    0.7032              -24.69          32.69          43.11          58.76           3.38          3.389          135.0          25.77         -117.1          67.78          115.0
    0.7446               -24.7          32.67          43.11          58.75          3.383          3.383          134.9          25.75         -117.0           67.8          115.0
     0.786              -24.71          32.65          43.11          58.74          3.386          3.376          134.7          25.72         -117.0          67.83          114.9
    0.8273              -24.72          32.63          43.11          58.73           3.39          3.369          134.6           25.7         -116.9          67.85          114.9
